<?xml version="1.0" encoding="UTF-8" standalone="no"?>
<svg width="18px" height="11px" viewBox="0 0 18 11" version="1.1" xmlns="http://www.w3.org/2000/svg" xmlns:xlink="http://www.w3.org/1999/xlink" xmlns:sketch="http://www.bohemiancoding.com/sketch/ns">
    <!-- Generator: Sketch 3.2.2 (9983) - http://www.bohemiancoding.com/sketch -->
    <title>logo-3 2</title>
    <desc>Created with Sketch.</desc>
    <defs></defs>
    <g id="Internal" stroke="none" stroke-width="1" fill="none" fill-rule="evenodd" sketch:type="MSPage">
        <g id="Article-7" sketch:type="MSArtboardGroup" transform="translate(-433.000000, -529.000000)" fill="#BCBCBC">
            <g id="Group" sketch:type="MSLayerGroup" transform="translate(400.000000, 75.000000)">
                <g id="Group-2" transform="translate(0.000000, 427.000000)" sketch:type="MSShapeGroup">
                    <path d="M33,33.1063792 C33,33.01498 33.0702536,32.9665734 33.1561905,32.9979947 L36.8914066,34.3637121 C36.9776682,34.3952522 37.1212391,34.4105119 37.2123276,34.3977611 L46.3736597,33.1153365 C46.4646378,33.1026011 46.5383902,33.1660567 46.5383902,33.2574484 L46.5383902,36.3331573 C46.5383902,36.4600504 46.4342345,36.5799102 46.3061418,36.6008081 L37.3264986,37.9904608 C37.1724655,38.0155908 36.9302486,37.9893552 36.7855725,37.931894 L33.2179873,36.5262349 C33.0975962,36.4784189 33,36.3371617 33,36.2102223 L33,33.1063792 Z M37.6192306,33.965251 C38.4069069,33.965251 39.0454447,33.7751016 39.0454447,33.5405405 C39.0454447,33.3059795 38.4069069,33.1158301 37.6192306,33.1158301 C36.8315543,33.1158301 36.1930165,33.3059795 36.1930165,33.5405405 C36.1930165,33.7751016 36.8315543,33.965251 37.6192306,33.965251 L37.6192306,33.965251 L37.6192306,33.965251 Z M35.192538,33.1158301 C35.9802143,33.1158301 36.6187521,32.9256808 36.6187521,32.6911197 C36.6187521,32.4565586 35.9802143,32.2664093 35.192538,32.2664093 C34.4048618,32.2664093 33.766324,32.4565586 33.766324,32.6911197 C33.766324,32.9256808 34.4048618,33.1158301 35.192538,33.1158301 L35.192538,33.1158301 L35.192538,33.1158301 Z M41.0676885,29.5907336 C41.8553648,29.5907336 42.4939025,29.4005843 42.4939025,29.1660232 C42.4939025,28.9314621 41.8553648,28.7413127 41.0676885,28.7413127 C40.2800122,28.7413127 39.6414744,28.9314621 39.6414744,29.1660232 C39.6414744,29.4005843 40.2800122,29.5907336 41.0676885,29.5907336 L41.0676885,29.5907336 L41.0676885,29.5907336 Z M38.6835694,28.7413127 C39.4712457,28.7413127 40.1097835,28.5511634 40.1097835,28.3166023 C40.1097835,28.0820412 39.4712457,27.8918919 38.6835694,27.8918919 C37.8958932,27.8918919 37.2573554,28.0820412 37.2573554,28.3166023 C37.2573554,28.5511634 37.8958932,28.7413127 38.6835694,28.7413127 L38.6835694,28.7413127 L38.6835694,28.7413127 Z M44.6012934,29.2509653 C45.3889697,29.2509653 46.0275075,29.0608159 46.0275075,28.8262548 C46.0275075,28.5916937 45.3889697,28.4015444 44.6012934,28.4015444 C43.8136172,28.4015444 43.1750794,28.5916937 43.1750794,28.8262548 C43.1750794,29.0608159 43.8136172,29.2509653 44.6012934,29.2509653 L44.6012934,29.2509653 L44.6012934,29.2509653 Z M42.0894538,28.3166023 C42.8771301,28.3166023 43.5156678,28.126453 43.5156678,27.8918919 C43.5156678,27.6573308 42.8771301,27.4671815 42.0894538,27.4671815 C41.3017775,27.4671815 40.6632397,27.6573308 40.6632397,27.8918919 C40.6632397,28.126453 41.3017775,28.3166023 42.0894538,28.3166023 L42.0894538,28.3166023 L42.0894538,28.3166023 Z M48.1348984,28.7413127 C48.9225747,28.7413127 49.5611125,28.5511634 49.5611125,28.3166023 C49.5611125,28.0820412 48.9225747,27.8918919 48.1348984,27.8918919 C47.3472222,27.8918919 46.7086844,28.0820412 46.7086844,28.3166023 C46.7086844,28.5511634 47.3472222,28.7413127 48.1348984,28.7413127 L48.1348984,28.7413127 L48.1348984,28.7413127 Z M45.4953381,27.8494208 C46.2830143,27.8494208 46.9215522,27.6592715 46.9215522,27.4247104 C46.9215522,27.1901493 46.2830143,27 45.4953381,27 C44.7076618,27 44.069124,27.1901493 44.069124,27.4247104 C44.069124,27.6592715 44.7076618,27.8494208 45.4953381,27.8494208 L45.4953381,27.8494208 L45.4953381,27.8494208 Z M36.5704967,32.0308713 C36.4560711,31.9876709 36.3633108,31.8546511 36.3633108,31.7329603 L36.3633108,28.6882679 C36.3633108,28.5975755 36.4338905,28.5496728 36.5203177,28.5810428 L40.3734273,29.9795887 C40.4601399,30.0110624 40.6041399,30.0273258 40.695307,30.015883 L49.9194586,28.8581239 C49.9801894,28.8505013 50.0294216,28.8934869 50.0294216,28.954379 L50.0294214,32.0148378 C50.0294214,32.1414423 49.9251758,32.2590207 49.7957945,32.2775696 L40.8108585,33.4905297 C40.6559845,33.5127334 40.4129845,33.4842316 40.2681834,33.426901 L36.5704967,32.0308713 L36.5704967,32.0308713 Z" id="logo-3-2"></path>
                </g>
            </g>
        </g>
    </g>
</svg>