<?xml version="1.0" encoding="UTF-8" standalone="no"?>
<svg width="25px" height="25px" viewBox="0 0 25 25" version="1.1" xmlns="http://www.w3.org/2000/svg" xmlns:xlink="http://www.w3.org/1999/xlink" xmlns:sketch="http://www.bohemiancoding.com/sketch/ns">
    <!-- Generator: Sketch 3.2.2 (9983) - http://www.bohemiancoding.com/sketch -->
    <title>Group</title>
    <desc>Created with Sketch.</desc>
    <defs></defs>
    <g id="Page-1" stroke="none" stroke-width="1" fill="none" fill-rule="evenodd" sketch:type="MSPage">
        <g id="Group" sketch:type="MSLayerGroup" transform="translate(1.000000, 1.000000)" stroke="#231F1F">
            <path d="M23,23 L0,23 L0,0 L23,0 L23,23 Z" id="Stroke-2520" sketch:type="MSShapeGroup"></path>
            <path d="M23,17 L0,17" id="Stroke-2521" sketch:type="MSShapeGroup"></path>
            <path d="M9,3 C7.755,3 6.7305,3.913 6.54,5.1045 C6.3715,5.039 6.191,5 6,5 C5.1715,5 4.5,5.672 4.5,6.5 C4.5,7.328 5.1715,8 6,8 L9,8 C10.3805,8 11.5,6.881 11.5,5.5 C11.5,4.119 10.3805,3 9,3 L9,3 Z" id="Stroke-2522" sketch:type="MSShapeGroup"></path>
            <path d="M3,17 C3,17 5,12 7.5,12 C10,12 12,15 12,15 L15.0145,9.832 C15.315,9.317 15.867,9 16.4635,9 C17.0985,9 17.679,9.359 17.9635,9.927 L21.5,17" id="Stroke-2523" stroke-linejoin="round" sketch:type="MSShapeGroup"></path>
        </g>
    </g>
</svg>