<?xml version="1.0" encoding="UTF-8" standalone="no"?>
<svg width="17px" height="13px" viewBox="0 0 17 13" version="1.1" xmlns="http://www.w3.org/2000/svg" xmlns:xlink="http://www.w3.org/1999/xlink" xmlns:sketch="http://www.bohemiancoding.com/sketch/ns">
    <!-- Generator: Sketch 3.3.3 (12072) - http://www.bohemiancoding.com/sketch -->
    <title>1443225879_food-drink_cup_coffee_tea_drink_</title>
    <desc>Created with Sketch.</desc>
    <defs></defs>
    <g id="Page-1" stroke="none" stroke-width="1" fill="none" fill-rule="evenodd" sketch:type="MSPage">
        <g id="1443225879_food-drink_cup_coffee_tea_drink_" sketch:type="MSLayerGroup" transform="translate(-1.000000, 0.000000)" fill="#FFFFFF">
            <g id="miu" sketch:type="MSShapeGroup">
                <path d="M14.1866871,3.63481994 C14.1837932,3.38461846 14.1751996,3.1285802 14.1606557,2.86663707 L14.1606557,2.86663707 C13.1738712,3.82019476 10.605563,4.5 7.5926789,4.5 C4.5797941,4.5 2.01148545,3.82019448 1.02470136,2.86663648 C0.64493195,9.70648052 4.3223113,12.5201826 7.5926785,12.5201823 C9.3146109,12.520182 11.149379,11.7401413 12.4453566,10.0030822 C12.5501353,10.001618 12.7096771,9.98889788 12.9521149,9.95499663 C13.7281769,9.84647613 15.3180731,9.2199759 15.9636505,8.78440337 C16.3738068,8.50766997 17.0730255,7.89744048 17.3558014,7.32712798 C17.5683474,6.89845762 17.7516755,6.32144338 17.6756867,5.77048736 C17.599698,5.21953133 17.2702912,3.76481116 15.7685822,3.57297766 C15.0200976,3.47736373 14.5100451,3.54395944 14.1866871,3.63481994 L14.1866871,3.63481994 Z M14.1282987,5.17392637 C14.0127691,6.44126482 13.7340513,7.52860589 13.3367598,8.44806665 C13.8628237,8.42081002 14.5821786,8.31966607 15.235135,8.00986712 C15.8970002,7.69584124 16.7418488,6.91807048 16.8863801,6.20731609 C17.0309113,5.49656169 16.6551091,4.94132424 16.3195466,4.7621867 C15.4550137,4.30066216 14.6085911,4.78546412 14.1282987,5.17392637 L14.1282987,5.17392637 Z M14.0926789,2.02018225 C14.0926789,0.915612698 11.1825299,0.0201822519 7.5926789,0.0201822519 C4.0028278,0.0201822519 1.09267885,0.915612698 1.09267885,2.02018225 C1.09267885,3.12475181 4.0028278,4.02018225 7.5926789,4.02018225 C11.1825299,4.02018225 14.0926789,3.12475181 14.0926789,2.02018225 L14.0926789,2.02018225 Z" id="food-drink_cup_coffee_tea_drink_glyph"></path>
            </g>
        </g>
    </g>
</svg>