<?xml version="1.0" encoding="UTF-8" standalone="no"?>
<svg width="256px" height="256px" viewBox="0 0 256 256" version="1.1" xmlns="http://www.w3.org/2000/svg" xmlns:xlink="http://www.w3.org/1999/xlink" xmlns:sketch="http://www.bohemiancoding.com/sketch/ns">
    <!-- Generator: Sketch 3.3.3 (12072) - http://www.bohemiancoding.com/sketch -->
    <title>search</title>
    <desc>Created with Sketch.</desc>
    <defs></defs>
    <g id="Page-1" stroke="none" stroke-width="1" fill="none" fill-rule="evenodd" sketch:type="MSPage">
        <g id="search" sketch:type="MSLayerGroup" fill="#FF5C13">
            <path d="M174.188,151.563 C185.36,135.875 192,116.727 192,96 C192,42.968 149.016,0 96,0 C42.983,0 0,42.968 0,96 C0,149.016 42.983,192 96,192 C116.727,192 135.875,185.36 151.563,174.188 L228.687,251.312 C234.937,257.564 245.062,257.564 251.311,251.312 C257.563,245.063 257.563,234.938 251.311,228.689 L174.188,151.563 L174.188,151.563 Z M150.953,128.319 C145.423,137.679 137.68,145.423 128.319,150.953 C118.805,156.563 107.843,160 96,160 C60.655,160 32,131.344 32,96 C32,60.656 60.655,32 96,32 C131.344,32 160,60.656 160,96 C160,107.843 156.563,118.805 150.953,128.319 L150.953,128.319 Z" id="Shape" sketch:type="MSShapeGroup"></path>
        </g>
    </g>
</svg>