<?xml version="1.0" encoding="UTF-8" standalone="no"?>
<svg width="64px" height="52px" viewBox="0 0 64 52" version="1.1" xmlns="http://www.w3.org/2000/svg" xmlns:xlink="http://www.w3.org/1999/xlink" xmlns:sketch="http://www.bohemiancoding.com/sketch/ns">
    <!-- Generator: Sketch 3.3.3 (12072) - http://www.bohemiancoding.com/sketch -->
    <title>Shape</title>
    <desc>Created with Sketch.</desc>
    <defs></defs>
    <g id="Page-1" stroke="none" stroke-width="1" fill="none" fill-rule="evenodd" sketch:type="MSPage">
        <path d="M56.568,8.179 L56.568,8.147 C57.126,7.929 57.566,7.467 58.009,7.125 C60.009,5.584 61.31,3.555 62.269,0.961 C61.726,1.259 61.181,1.557 60.636,1.855 C58.955,2.708 56.103,3.934 53.908,4.122 C51.322,1.766 48.616,-0.087 43.53,0.002 L41.928,0.194 C40.891,0.421 39.903,0.702 39.012,1.088 C35.288,2.704 32.749,5.719 31.581,9.902 C31.116,11.566 30.927,14.347 31.517,16.066 C29.416,16.063 27.382,15.732 25.623,15.299 C18.69,13.594 14.372,11.29 9.578,7.54 C8.17,6.439 6.789,5.191 5.67,3.804 C5.309,3.357 4.74,2.965 4.485,2.43 C4.463,2.42 4.442,2.409 4.421,2.398 C3.864,3.43 3.341,4.548 3.012,5.815 C1.712,10.809 3.767,15.003 5.959,17.727 C6.623,18.553 7.7,19.065 8.361,19.835 L8.425,19.835 C7.928,20.019 7.064,19.764 6.631,19.675 C5.607,19.464 4.734,19.27 3.876,18.909 C3.428,18.696 2.979,18.483 2.531,18.27 C2.51,23.787 5.297,27.373 8.713,29.511 C9.827,30.208 11.385,31.147 13.005,31.235 C12.138,31.967 8.43,31.631 7.143,31.491 C8.752,35.633 11.224,38.391 15.471,39.889 C16.567,40.276 17.904,40.618 19.379,40.592 C18.596,41.522 16.925,42.28 15.823,42.923 C13.551,44.252 10.913,45.114 7.943,45.766 C6.752,46.026 5.486,45.973 4.195,46.18 C2.768,46.41 1.275,46.059 -0.001,46.02 C0.383,46.254 0.768,46.49 1.152,46.723 C2.323,47.436 3.546,48.061 4.868,48.639 C7.247,49.68 9.782,50.465 12.588,51.162 C18.246,52.566 26.228,51.935 31.167,50.396 C44.921,46.109 53.609,36.103 56.889,21.366 C57.453,18.831 57.535,15.952 57.498,12.935 C58.182,12.392 58.865,11.849 59.548,11.306 C61.241,9.95 62.828,8.06 64,6.196 L64,6.164 C61.768,6.864 59.418,8.149 56.568,8.179 L56.568,8.179 Z" id="Shape" fill="#FFFFFF" sketch:type="MSShapeGroup"></path>
    </g>
</svg>