<?xml version="1.0" encoding="UTF-8" standalone="no"?>
<svg width="15px" height="11px" viewBox="0 0 15 11" version="1.1" xmlns="http://www.w3.org/2000/svg" xmlns:xlink="http://www.w3.org/1999/xlink" xmlns:sketch="http://www.bohemiancoding.com/sketch/ns">
    <!-- Generator: Sketch 3.2.2 (9983) - http://www.bohemiancoding.com/sketch -->
    <title>logo</title>
    <desc>Created with Sketch.</desc>
    <defs></defs>
    <g id="Internal" stroke="none" stroke-width="1" fill="none" fill-rule="evenodd" sketch:type="MSPage">
        <g id="Article-10" sketch:type="MSArtboardGroup" transform="translate(-400.000000, -78.000000)" fill="#999999">
            <g id="Group" sketch:type="MSLayerGroup" transform="translate(400.000000, 75.000000)">
                <g id="header" sketch:type="MSShapeGroup">
                    <g id="logo" transform="translate(0.000000, 3.000000)">
                        <path d="M7.83185841,5.35249042 L10.7224736,0 L12.1239839,0 L15,5.35249042 L13.1021214,5.35249042 L11.4232287,1.93245758 L9.72973704,5.35249042 L7.83185841,5.35249042 Z" id="^"></path>
                        <path d="M5.83036433,2.68566141 C6.42723357,3.18363996 6.72566372,3.89569206 6.72566372,4.82183908 C6.72566372,5.7479861 6.42723357,6.46003821 5.83036433,6.95801675 C5.23349508,7.4559953 4.40128744,7.70498084 3.33371643,7.70498084 L1.73236793,7.70498084 L1.73236793,11 L0,11 L0,1.93869732 L3.33371643,1.93869732 C4.40128744,1.93869732 5.23349508,2.18768286 5.83036433,2.68566141 L5.83036433,2.68566141 Z M3.33340007,6.27969349 C3.86931487,6.27969349 4.27368088,6.14454527 4.54651023,5.87424477 C4.81933958,5.60394427 4.95575221,5.25675315 4.95575221,4.83266099 C4.95575221,4.40856883 4.81933958,4.05904757 4.54651023,3.78408672 C4.27368088,3.50912587 3.86931487,3.37164751 3.33340007,3.37164751 L1.72566372,3.37164751 L1.72566372,6.27969349 L3.33340007,6.27969349 Z" id="P"></path>
                    </g>
                </g>
            </g>
        </g>
    </g>
</svg>