<svg width="20" height="21" viewBox="0 0 20 21" xmlns="http://www.w3.org/2000/svg"><title>Rectangle</title><path d="M8.2.2h-.08.033c-1.17.018-2.117.976-2.117 2.155V9.01h-4.24C.8 9.01 0 9.81 0 10.8v.085c0 .975.802 1.787 1.79 1.787h4.255l-.033 5.425c-.007 1.165.932 2.103 2.096 2.103 1.172 0 2.108-.94 2.108-2.103v-5.425h2.857c2.18 0 6.927-1.035 6.927-6.436 0-1.94-.61-3.43-1.828-4.472C16.952.72 15.252.2 13.072.2h-4.87zm5.137 8.828c1.064 0 1.866-.262 2.407-.787.542-.523.813-1.197.813-2.02 0-.822-.27-1.5-.813-2.033-.54-.534-1.343-.8-2.407-.8h-3.19v5.64h3.19z" fill="#FF5C13" fill-rule="evenodd"/></svg>