<?xml version="1.0" encoding="UTF-8" standalone="no"?>
<svg width="51px" height="24px" viewBox="0 0 51 24" version="1.1" xmlns="http://www.w3.org/2000/svg" xmlns:xlink="http://www.w3.org/1999/xlink" xmlns:sketch="http://www.bohemiancoding.com/sketch/ns">
    <!-- Generator: Sketch 3.2.2 (9983) - http://www.bohemiancoding.com/sketch -->
    <title>Logo</title>
    <desc>Created with Sketch.</desc>
    <defs></defs>
    <g id="Homepage" stroke="none" stroke-width="1" fill="none" fill-rule="evenodd" sketch:type="MSPage">
        <g id="Homepage---Logged-Out" sketch:type="MSArtboardGroup" transform="translate(-42.000000, -43.000000)">
            <g id="Logo" sketch:type="MSLayerGroup" transform="translate(42.000000, 43.000000)">
                <path d="M2.86669355,18.4473582 C2.86669355,22.9121988 6.40643689,23.9425466 8.97399719,23.9425466 C9.22327489,23.9425466 9.47255259,23.7708219 9.47255259,23.525501 L9.47255259,23.0348592 C9.47255259,22.7650062 9.34791374,22.6423458 9.14849158,22.6178137 C6.78035344,22.2743644 4.58670968,21.096824 4.58670968,18.4473582 L4.58670968,15.5525714 C4.58670968,13.0993623 3.34032118,12.5596563 2.61741585,12.2652712 L2.61741585,12.0935466 C3.34032118,11.7991615 4.58670968,11.2594555 4.58670968,8.80624638 L4.58670968,5.91145963 C4.58670968,3.26199379 6.78035344,2.05992133 9.14849158,1.71647205 C9.34791374,1.69193996 9.47255259,1.49568323 9.47255259,1.27489441 L9.47255259,0.808784679 C9.47255259,0.514399586 9.22327489,0.39173913 8.97399719,0.39173913 C6.40643689,0.39173913 2.86669355,1.44661905 2.86669355,5.91145963 L2.86669355,9.49314493 C2.86669355,10.597089 1.7449439,11.3085197 1.14667742,11.406648 C0.947255259,11.4311801 0.77276087,11.5783727 0.77276087,11.7746294 L0.77276087,12.5351242 C0.77276087,12.731381 0.947255259,12.9276377 1.14667742,12.9521698 C1.7449439,13.0502981 2.86669355,13.7617288 2.86669355,14.8656729 L2.86669355,18.4473582 Z" id="Path" fill="#FFFFFF" sketch:type="MSShapeGroup"></path>
                <path d="M46.4054937,15.5525714 L46.4054937,18.4473582 C46.4054937,21.096824 44.2118499,22.2743644 41.8437118,22.6178137 C41.6442896,22.6423458 41.5196508,22.7650062 41.5196508,23.0348592 L41.5196508,23.525501 C41.5196508,23.7708219 41.7689285,23.9425466 42.0182062,23.9425466 C44.5857665,23.9425466 48.1255098,22.9121988 48.1255098,18.4473582 L48.1255098,14.8656729 C48.1255098,13.7617288 49.2472595,13.0502981 49.845526,12.9521698 C50.0449481,12.9276377 50.2194425,12.731381 50.2194425,12.5351242 L50.2194425,11.7746294 C50.2194425,11.5783727 50.0449481,11.4311801 49.845526,11.406648 C49.2472595,11.3085197 48.1255098,10.597089 48.1255098,9.49314493 L48.1255098,5.91145963 C48.1255098,1.44661905 44.5857665,0.39173913 42.0182062,0.39173913 C41.7689285,0.39173913 41.5196508,0.514399586 41.5196508,0.808784679 L41.5196508,1.27489441 C41.5196508,1.49568323 41.6442896,1.69193996 41.8437118,1.71647205 C44.2118499,2.05992133 46.4054937,3.26199379 46.4054937,5.91145963 L46.4054937,8.80624638 C46.4054937,11.2594555 47.6518822,11.7991615 48.3747875,12.0935466 L48.3747875,12.2652712 C47.6518822,12.5596563 46.4054937,13.0993623 46.4054937,15.5525714 L46.4054937,15.5525714 Z" id="Path" fill="#FFFFFF" sketch:type="MSShapeGroup"></path>
                <path d="M23.7634409,12.3677249 C23.7634409,15.5972189 21.1026781,18.2150165 17.8225806,18.2150165 C14.5402554,18.2150165 11.8817204,15.5972189 11.8817204,12.3677249 C11.8817204,9.13896164 14.5402554,6.52116402 17.8225806,6.52116402 C21.1026781,6.52116402 23.7634409,9.13896164 23.7634409,12.3677249 L23.7634409,12.3677249 Z" id="Stroke-6717" stroke="#FFFFFF" stroke-width="2" stroke-linecap="round" sketch:type="MSShapeGroup"></path>
                <path d="M28.219086,12.3677249 C28.219086,15.5972189 30.877621,18.2150165 34.1599462,18.2150165 C37.4400437,18.2150165 40.1008065,15.5972189 40.1008065,12.3677249 C40.1008065,9.13896164 37.4400437,6.52116402 34.1599462,6.52116402 C30.877621,6.52116402 28.219086,9.13896164 28.219086,12.3677249 L28.219086,12.3677249 Z" id="Stroke-6718" stroke="#FFFFFF" stroke-width="2" stroke-linecap="round" sketch:type="MSShapeGroup"></path>
                <path d="M23.7634409,12.3677249 C23.7634409,11.1582176 24.7600202,10.1752646 25.9912634,10.1752646 C27.2195363,10.1752646 28.219086,11.1582176 28.219086,12.3677249" id="Stroke-6719" stroke="#FFFFFF" stroke-width="2" stroke-linecap="round" sketch:type="MSShapeGroup"></path>
            </g>
        </g>
    </g>
</svg>