<?xml version="1.0" encoding="UTF-8" standalone="no"?>
<svg width="100px" height="120px" viewBox="0 0 100 120" version="1.1" xmlns="http://www.w3.org/2000/svg" xmlns:xlink="http://www.w3.org/1999/xlink" xmlns:sketch="http://www.bohemiancoding.com/sketch/ns">
    <!-- Generator: Sketch 3.2.2 (9983) - http://www.bohemiancoding.com/sketch -->
    <title>Group</title>
    <desc>Created with Sketch.</desc>
    <defs></defs>
    <g id="External" stroke="none" stroke-width="1" fill="none" fill-rule="evenodd" sketch:type="MSPage">
        <g id="Error" sketch:type="MSArtboardGroup" transform="translate(-701.000000, -379.000000)">
            <g id="content" sketch:type="MSLayerGroup" transform="translate(598.000000, 379.000000)">
                <g id="Group" transform="translate(103.000000, 0.000000)" sketch:type="MSShapeGroup">
                    <path d="M0,50.0001629 C0,22.3858354 22.3796909,0 50,0 L50,0 C77.6142375,0 100,22.3951674 100,50.0001629 L100,120 L90,110 L80,120 L70,110 L60,120 L50,110 L40,120 L30,110 L20,120 L10,110 L0.703180581,119.296819 C0.31482467,119.685175 0,119.553477 0,118.998636 L0,50.0001629 Z" id="Rectangle-1" stroke="#E5E5E5" stroke-width="2"></path>
                    <circle id="Oval-1" fill="#E5E5E5" cx="22.5" cy="62.5" r="2.5"></circle>
                    <path d="M50,92 C60,92 60,82 60,82 L40,82 C40,82 40,92 50,92 Z" id="Oval-3" fill="#E5E5E5"></path>
                    <path d="M50,91 C52.1045695,91 54,90.1045695 54,89 C54,87.8954305 52,87 50,87 C48,87 46,87.8954305 46,89 C46,90.1045695 47.8954305,91 50,91 Z" id="Oval-4" fill="#FFFFFF"></path>
                    <circle id="Oval-2" fill="#E5E5E5" cx="77.5" cy="62.5" r="2.5"></circle>
                </g>
            </g>
        </g>
    </g>
</svg>